# Blender v2.79 (sub 0) OBJ File: ''
# www.blender.org
mtllib grid.mtl
o Cylinder_Cylinder.001
v 0.761696 0.348531 -2.385843
v 0.761696 0.122841 -2.385843
v 0.797572 0.348531 -2.385139
v 0.797572 0.122841 -2.385139
v 0.833392 0.348531 -2.383026
v 0.833392 0.122841 -2.383026
v 0.869102 0.348531 -2.379509
v 0.869102 0.122841 -2.379509
v 0.904645 0.348531 -2.374593
v 0.904645 0.122841 -2.374593
v 0.939969 0.348531 -2.368285
v 0.939969 0.122841 -2.368285
v 0.975018 0.348531 -2.360595
v 0.975018 0.122841 -2.360595
v 1.009737 0.348531 -2.351535
v 1.009737 0.122841 -2.351535
v 1.044075 0.348531 -2.341119
v 1.044075 0.122841 -2.341119
v 1.077977 0.348531 -2.329362
v 1.077977 0.122841 -2.329362
v 1.111391 0.348531 -2.316284
v 1.111391 0.122841 -2.316284
v 1.144266 0.348531 -2.301905
v 1.144266 0.122841 -2.301905
v 1.176551 0.348531 -2.286245
v 1.176551 0.122841 -2.286245
v 1.208196 0.348531 -2.269331
v 1.208196 0.122841 -2.269331
v 1.239153 0.348531 -2.251186
v 1.239153 0.122841 -2.251186
v 1.269374 0.348531 -2.231841
v 1.269374 0.122841 -2.231841
v 1.298812 0.348531 -2.211323
v 1.298812 0.122841 -2.211323
v 1.327422 0.348531 -2.189667
v 1.327422 0.122841 -2.189667
v 1.355159 0.348531 -2.166903
v 1.355159 0.122841 -2.166903
v 1.381982 0.348531 -2.143068
v 1.381982 0.122841 -2.143068
v 1.407848 0.348531 -2.118198
v 1.407848 0.122841 -2.118198
v 1.432717 0.348531 -2.092332
v 1.432717 0.122841 -2.092332
v 1.456552 0.348531 -2.065510
v 1.456552 0.122841 -2.065510
v 1.479316 0.348531 -2.037773
v 1.479316 0.122841 -2.037773
v 1.500973 0.348531 -2.009163
v 1.500973 0.122841 -2.009163
v 1.521490 0.348531 -1.979725
v 1.521490 0.122841 -1.979725
v 1.540835 0.348531 -1.949504
v 1.540835 0.122841 -1.949504
v 1.558980 0.348531 -1.918547
v 1.558980 0.122841 -1.918547
v 1.575894 0.348531 -1.886902
v 1.575894 0.122841 -1.886902
v 1.591554 0.348531 -1.854617
v 1.591554 0.122841 -1.854617
v 1.605933 0.348531 -1.821742
v 1.605933 0.122841 -1.821742
v 1.619012 0.348531 -1.788327
v 1.619012 0.122841 -1.788327
v 1.630768 0.348531 -1.754425
v 1.630768 0.122841 -1.754425
v 1.641184 0.348531 -1.720088
v 1.641184 0.122841 -1.720088
v 1.650244 0.348531 -1.685368
v 1.650244 0.122841 -1.685368
v 1.657934 0.348531 -1.650320
v 1.657934 0.122841 -1.650320
v 1.664242 0.348531 -1.614996
v 1.664242 0.122841 -1.614996
v 1.669158 0.348531 -1.579452
v 1.669158 0.122841 -1.579452
v 1.672675 0.348531 -1.543743
v 1.672675 0.122841 -1.543743
v 1.674788 0.348531 -1.507922
v 1.674788 0.122841 -1.507922
v 1.675492 0.348531 -1.472047
v 1.675492 0.122841 -1.472047
v 1.674787 0.348531 -1.436172
v 1.674787 0.122841 -1.436172
v 1.672675 0.348531 -1.400351
v 1.672675 0.122841 -1.400351
v 1.669158 0.348531 -1.364642
v 1.669158 0.122841 -1.364642
v 1.664242 0.348531 -1.329098
v 1.664242 0.122841 -1.329098
v 1.657933 0.348531 -1.293774
v 1.657933 0.122841 -1.293774
v 1.650244 0.348531 -1.258726
v 1.650244 0.122841 -1.258726
v 1.641184 0.348531 -1.224006
v 1.641184 0.122841 -1.224006
v 1.630767 0.348531 -1.189669
v 1.630767 0.122841 -1.189669
v 1.619011 0.348531 -1.155767
v 1.619011 0.122841 -1.155767
v 1.605933 0.348531 -1.122352
v 1.605933 0.122841 -1.122352
v 1.591553 0.348531 -1.089478
v 1.591553 0.122841 -1.089478
v 1.575894 0.348531 -1.057192
v 1.575894 0.122841 -1.057192
v 1.558979 0.348531 -1.025547
v 1.558979 0.122841 -1.025547
v 1.540835 0.348531 -0.994590
v 1.540835 0.122841 -0.994590
v 1.521489 0.348531 -0.964369
v 1.521489 0.122841 -0.964369
v 1.500972 0.348531 -0.934931
v 1.500972 0.122841 -0.934931
v 1.479315 0.348531 -0.906322
v 1.479315 0.122841 -0.906322
v 1.456552 0.348531 -0.878584
v 1.456552 0.122841 -0.878584
v 1.432717 0.348531 -0.851762
v 1.432717 0.122841 -0.851762
v 1.407847 0.348531 -0.825896
v 1.407847 0.122841 -0.825896
v 1.381981 0.348531 -0.801026
v 1.381981 0.122841 -0.801026
v 1.355159 0.348531 -0.777191
v 1.355159 0.122841 -0.777191
v 1.327421 0.348531 -0.754428
v 1.327421 0.122841 -0.754428
v 1.298811 0.348531 -0.732771
v 1.298811 0.122841 -0.732771
v 1.269373 0.348531 -0.712254
v 1.269373 0.122841 -0.712254
v 1.239153 0.348531 -0.692908
v 1.239153 0.122841 -0.692908
v 1.208196 0.348531 -0.674764
v 1.208196 0.122841 -0.674764
v 1.176550 0.348531 -0.657849
v 1.176550 0.122841 -0.657849
v 1.144265 0.348531 -0.642190
v 1.144265 0.122841 -0.642190
v 1.111390 0.348531 -0.627810
v 1.111390 0.122841 -0.627810
v 1.077976 0.348531 -0.614732
v 1.077976 0.122841 -0.614732
v 1.044074 0.348531 -0.602976
v 1.044074 0.122841 -0.602976
v 1.009737 0.348531 -0.592560
v 1.009737 0.122841 -0.592560
v 0.975017 0.348531 -0.583500
v 0.975017 0.122841 -0.583500
v 0.939968 0.348531 -0.575810
v 0.939968 0.122841 -0.575810
v 0.904645 0.348531 -0.569502
v 0.904645 0.122841 -0.569502
v 0.869101 0.348531 -0.564586
v 0.869101 0.122841 -0.564586
v 0.833391 0.348531 -0.561069
v 0.833391 0.122841 -0.561069
v 0.797571 0.348531 -0.558956
v 0.797571 0.122841 -0.558956
v 0.761695 0.348531 -0.558252
v 0.761695 0.122841 -0.558252
v 0.725820 0.348531 -0.558956
v 0.725820 0.122841 -0.558956
v 0.690000 0.348531 -0.561069
v 0.690000 0.122841 -0.561069
v 0.654290 0.348531 -0.564586
v 0.654290 0.122841 -0.564586
v 0.618746 0.348531 -0.569502
v 0.618746 0.122841 -0.569502
v 0.583423 0.348531 -0.575810
v 0.583423 0.122841 -0.575810
v 0.548374 0.348531 -0.583500
v 0.548374 0.122841 -0.583500
v 0.513654 0.348531 -0.592560
v 0.513654 0.122841 -0.592560
v 0.479317 0.348531 -0.602976
v 0.479317 0.122841 -0.602976
v 0.445415 0.348531 -0.614733
v 0.445415 0.122841 -0.614733
v 0.412001 0.348531 -0.627811
v 0.412001 0.122841 -0.627811
v 0.379126 0.348531 -0.642191
v 0.379126 0.122841 -0.642191
v 0.346841 0.348531 -0.657850
v 0.346841 0.122841 -0.657850
v 0.315195 0.348531 -0.674765
v 0.315195 0.122841 -0.674765
v 0.284238 0.348531 -0.692909
v 0.284238 0.122841 -0.692909
v 0.254018 0.348531 -0.712255
v 0.254018 0.122841 -0.712255
v 0.224580 0.348531 -0.732772
v 0.224580 0.122841 -0.732772
v 0.195970 0.348531 -0.754429
v 0.195970 0.122841 -0.754429
v 0.168233 0.348531 -0.777193
v 0.168233 0.122841 -0.777193
v 0.141410 0.348531 -0.801028
v 0.141410 0.122841 -0.801028
v 0.115544 0.348531 -0.825897
v 0.115544 0.122841 -0.825897
v 0.090675 0.348531 -0.851763
v 0.090675 0.122841 -0.851763
v 0.066840 0.348531 -0.878585
v 0.066840 0.122841 -0.878585
v 0.044077 0.348531 -0.906323
v 0.044077 0.122841 -0.906323
v 0.022420 0.348531 -0.934933
v 0.022420 0.122841 -0.934933
v 0.001902 0.348531 -0.964371
v 0.001902 0.122841 -0.964371
v -0.017443 0.348531 -0.994591
v -0.017443 0.122841 -0.994591
v -0.035587 0.348531 -1.025548
v -0.035587 0.122841 -1.025548
v -0.052502 0.348531 -1.057194
v -0.052502 0.122841 -1.057194
v -0.068161 0.348531 -1.089479
v -0.068161 0.122841 -1.089479
v -0.082541 0.348531 -1.122354
v -0.082541 0.122841 -1.122354
v -0.095619 0.348531 -1.155768
v -0.095619 0.122841 -1.155768
v -0.107375 0.348531 -1.189670
v -0.107375 0.122841 -1.189670
v -0.117791 0.348531 -1.224007
v -0.117791 0.122841 -1.224007
v -0.126851 0.348531 -1.258727
v -0.126851 0.122841 -1.258727
v -0.134541 0.348531 -1.293776
v -0.134541 0.122841 -1.293776
v -0.140849 0.348531 -1.329100
v -0.140849 0.122841 -1.329100
v -0.145765 0.348531 -1.364644
v -0.145765 0.122841 -1.364644
v -0.149282 0.348531 -1.400353
v -0.149282 0.122841 -1.400353
v -0.151395 0.348531 -1.436173
v -0.151395 0.122841 -1.436173
v -0.152099 0.348531 -1.472049
v -0.152099 0.122841 -1.472049
v -0.151395 0.348531 -1.507924
v -0.151395 0.122841 -1.507924
v -0.149282 0.348531 -1.543744
v -0.149282 0.122841 -1.543744
v -0.145765 0.348531 -1.579454
v -0.145765 0.122841 -1.579454
v -0.140849 0.348531 -1.614998
v -0.140849 0.122841 -1.614998
v -0.134541 0.348531 -1.650321
v -0.134541 0.122841 -1.650321
v -0.126851 0.348531 -1.685370
v -0.126851 0.122841 -1.685370
v -0.117791 0.348531 -1.720090
v -0.117791 0.122841 -1.720090
v -0.107374 0.348531 -1.754427
v -0.107374 0.122841 -1.754427
v -0.095618 0.348531 -1.788329
v -0.095618 0.122841 -1.788329
v -0.082540 0.348531 -1.821743
v -0.082540 0.122841 -1.821743
v -0.068160 0.348531 -1.854618
v -0.068160 0.122841 -1.854618
v -0.052501 0.348531 -1.886903
v -0.052501 0.122841 -1.886903
v -0.035586 0.348531 -1.918549
v -0.035586 0.122841 -1.918549
v -0.017442 0.348531 -1.949506
v -0.017442 0.122841 -1.949506
v 0.001904 0.348531 -1.979726
v 0.001904 0.122841 -1.979726
v 0.022421 0.348531 -2.009164
v 0.022421 0.122841 -2.009164
v 0.044078 0.348531 -2.037774
v 0.044078 0.122841 -2.037774
v 0.066842 0.348531 -2.065511
v 0.066842 0.122841 -2.065511
v 0.090677 0.348531 -2.092334
v 0.090677 0.122841 -2.092334
v 0.115546 0.348531 -2.118200
v 0.115546 0.122841 -2.118200
v 0.141412 0.348531 -2.143069
v 0.141412 0.122841 -2.143069
v 0.168235 0.348531 -2.166904
v 0.168235 0.122841 -2.166904
v 0.195972 0.348531 -2.189668
v 0.195972 0.122841 -2.189668
v 0.224582 0.348531 -2.211325
v 0.224582 0.122841 -2.211325
v 0.254020 0.348531 -2.231842
v 0.254020 0.122841 -2.231842
v 0.284241 0.348531 -2.251187
v 0.284241 0.122841 -2.251187
v 0.315198 0.348531 -2.269331
v 0.315198 0.122841 -2.269331
v 0.346843 0.348531 -2.286246
v 0.346843 0.122841 -2.286246
v 0.379128 0.348531 -2.301905
v 0.379128 0.122841 -2.301905
v 0.412004 0.348531 -2.316285
v 0.412004 0.122841 -2.316285
v 0.445418 0.348531 -2.329363
v 0.445418 0.122841 -2.329363
v 0.479320 0.348531 -2.341119
v 0.479320 0.122841 -2.341119
v 0.513657 0.348531 -2.351535
v 0.513657 0.122841 -2.351535
v 0.548377 0.348531 -2.360595
v 0.548377 0.122841 -2.360595
v 0.583425 0.348531 -2.368285
v 0.583425 0.122841 -2.368285
v 0.618749 0.348531 -2.374593
v 0.618749 0.122841 -2.374593
v 0.654293 0.348531 -2.379509
v 0.654293 0.122841 -2.379509
v 0.690003 0.348531 -2.383026
v 0.690003 0.122841 -2.383026
v 0.725823 0.348531 -2.385139
v 0.725823 0.122841 -2.385139
vn 0.0196 0.0000 -0.9998
vn 0.0589 0.0000 -0.9983
vn 0.0980 0.0000 -0.9952
vn 0.1370 0.0000 -0.9906
vn 0.1758 0.0000 -0.9844
vn 0.2143 0.0000 -0.9768
vn 0.2525 0.0000 -0.9676
vn 0.2903 0.0000 -0.9569
vn 0.3276 0.0000 -0.9448
vn 0.3645 0.0000 -0.9312
vn 0.4007 0.0000 -0.9162
vn 0.4364 0.0000 -0.8997
vn 0.4714 0.0000 -0.8819
vn 0.5057 0.0000 -0.8627
vn 0.5391 0.0000 -0.8422
vn 0.5718 0.0000 -0.8204
vn 0.6036 0.0000 -0.7973
vn 0.6344 0.0000 -0.7730
vn 0.6643 0.0000 -0.7475
vn 0.6931 0.0000 -0.7209
vn 0.7209 0.0000 -0.6931
vn 0.7475 0.0000 -0.6643
vn 0.7730 0.0000 -0.6344
vn 0.7973 0.0000 -0.6036
vn 0.8204 0.0000 -0.5718
vn 0.8422 0.0000 -0.5391
vn 0.8627 0.0000 -0.5057
vn 0.8819 0.0000 -0.4714
vn 0.8997 0.0000 -0.4364
vn 0.9162 0.0000 -0.4007
vn 0.9312 0.0000 -0.3645
vn 0.9448 0.0000 -0.3276
vn 0.9569 0.0000 -0.2903
vn 0.9676 0.0000 -0.2525
vn 0.9768 0.0000 -0.2143
vn 0.9844 0.0000 -0.1758
vn 0.9906 0.0000 -0.1370
vn 0.9952 0.0000 -0.0980
vn 0.9983 0.0000 -0.0589
vn 0.9998 0.0000 -0.0196
vn 0.9998 0.0000 0.0196
vn 0.9983 0.0000 0.0589
vn 0.9952 0.0000 0.0980
vn 0.9906 0.0000 0.1370
vn 0.9844 0.0000 0.1758
vn 0.9768 0.0000 0.2143
vn 0.9676 0.0000 0.2525
vn 0.9569 0.0000 0.2903
vn 0.9448 0.0000 0.3276
vn 0.9312 0.0000 0.3645
vn 0.9162 0.0000 0.4008
vn 0.8997 0.0000 0.4364
vn 0.8819 0.0000 0.4714
vn 0.8627 0.0000 0.5057
vn 0.8422 0.0000 0.5391
vn 0.8204 0.0000 0.5718
vn 0.7973 0.0000 0.6036
vn 0.7730 0.0000 0.6344
vn 0.7475 0.0000 0.6643
vn 0.7209 0.0000 0.6931
vn 0.6931 0.0000 0.7209
vn 0.6643 0.0000 0.7475
vn 0.6344 0.0000 0.7730
vn 0.6036 0.0000 0.7973
vn 0.5718 0.0000 0.8204
vn 0.5391 0.0000 0.8422
vn 0.5057 0.0000 0.8627
vn 0.4714 0.0000 0.8819
vn 0.4364 0.0000 0.8997
vn 0.4007 0.0000 0.9162
vn 0.3645 0.0000 0.9312
vn 0.3276 0.0000 0.9448
vn 0.2903 0.0000 0.9569
vn 0.2525 0.0000 0.9676
vn 0.2143 0.0000 0.9768
vn 0.1758 0.0000 0.9844
vn 0.1370 0.0000 0.9906
vn 0.0980 0.0000 0.9952
vn 0.0589 0.0000 0.9983
vn 0.0196 0.0000 0.9998
vn -0.0196 0.0000 0.9998
vn -0.0589 0.0000 0.9983
vn -0.0980 0.0000 0.9952
vn -0.1370 0.0000 0.9906
vn -0.1758 0.0000 0.9844
vn -0.2143 0.0000 0.9768
vn -0.2525 0.0000 0.9676
vn -0.2903 0.0000 0.9569
vn -0.3276 0.0000 0.9448
vn -0.3645 0.0000 0.9312
vn -0.4007 0.0000 0.9162
vn -0.4364 0.0000 0.8997
vn -0.4714 0.0000 0.8819
vn -0.5057 0.0000 0.8627
vn -0.5391 0.0000 0.8422
vn -0.5718 0.0000 0.8204
vn -0.6036 0.0000 0.7973
vn -0.6344 0.0000 0.7730
vn -0.6643 0.0000 0.7475
vn -0.6931 0.0000 0.7209
vn -0.7209 0.0000 0.6931
vn -0.7475 0.0000 0.6643
vn -0.7730 0.0000 0.6344
vn -0.7973 0.0000 0.6036
vn -0.8204 0.0000 0.5718
vn -0.8422 0.0000 0.5391
vn -0.8627 0.0000 0.5057
vn -0.8819 0.0000 0.4714
vn -0.8997 0.0000 0.4364
vn -0.9162 0.0000 0.4007
vn -0.9312 0.0000 0.3645
vn -0.9448 0.0000 0.3276
vn -0.9569 0.0000 0.2903
vn -0.9676 0.0000 0.2525
vn -0.9768 0.0000 0.2143
vn -0.9844 0.0000 0.1758
vn -0.9906 0.0000 0.1370
vn -0.9952 0.0000 0.0980
vn -0.9983 0.0000 0.0589
vn -0.9998 0.0000 0.0196
vn -0.9998 0.0000 -0.0196
vn -0.9983 0.0000 -0.0589
vn -0.9952 0.0000 -0.0980
vn -0.9906 0.0000 -0.1370
vn -0.9844 0.0000 -0.1758
vn -0.9768 0.0000 -0.2143
vn -0.9676 0.0000 -0.2525
vn -0.9569 0.0000 -0.2903
vn -0.9448 0.0000 -0.3276
vn -0.9312 0.0000 -0.3645
vn -0.9162 0.0000 -0.4007
vn -0.8997 0.0000 -0.4364
vn -0.8819 0.0000 -0.4714
vn -0.8627 0.0000 -0.5057
vn -0.8422 0.0000 -0.5391
vn -0.8204 0.0000 -0.5718
vn -0.7973 0.0000 -0.6036
vn -0.7730 0.0000 -0.6344
vn -0.7475 0.0000 -0.6642
vn -0.7209 0.0000 -0.6931
vn -0.6931 0.0000 -0.7209
vn -0.6642 0.0000 -0.7475
vn -0.6344 0.0000 -0.7730
vn -0.6036 0.0000 -0.7973
vn -0.5718 0.0000 -0.8204
vn -0.5391 0.0000 -0.8422
vn -0.5057 0.0000 -0.8627
vn -0.4714 0.0000 -0.8819
vn -0.4364 0.0000 -0.8997
vn -0.4007 0.0000 -0.9162
vn -0.3645 0.0000 -0.9312
vn -0.3276 0.0000 -0.9448
vn -0.2903 0.0000 -0.9569
vn -0.2525 0.0000 -0.9676
vn -0.2143 0.0000 -0.9768
vn -0.1758 0.0000 -0.9844
vn -0.1370 0.0000 -0.9906
vn -0.0980 0.0000 -0.9952
vn 0.0000 -1.0000 -0.0000
vn -0.0589 0.0000 -0.9983
vn -0.0196 0.0000 -0.9998
vn 0.0000 1.0000 -0.0000
usemtl None
s off
f 1//1 3//1 4//1 2//1
f 3//2 5//2 6//2 4//2
f 5//3 7//3 8//3 6//3
f 7//4 9//4 10//4 8//4
f 9//5 11//5 12//5 10//5
f 11//6 13//6 14//6 12//6
f 13//7 15//7 16//7 14//7
f 15//8 17//8 18//8 16//8
f 17//9 19//9 20//9 18//9
f 19//10 21//10 22//10 20//10
f 21//11 23//11 24//11 22//11
f 23//12 25//12 26//12 24//12
f 25//13 27//13 28//13 26//13
f 27//14 29//14 30//14 28//14
f 29//15 31//15 32//15 30//15
f 31//16 33//16 34//16 32//16
f 33//17 35//17 36//17 34//17
f 35//18 37//18 38//18 36//18
f 37//19 39//19 40//19 38//19
f 39//20 41//20 42//20 40//20
f 41//21 43//21 44//21 42//21
f 43//22 45//22 46//22 44//22
f 45//23 47//23 48//23 46//23
f 47//24 49//24 50//24 48//24
f 49//25 51//25 52//25 50//25
f 51//26 53//26 54//26 52//26
f 53//27 55//27 56//27 54//27
f 55//28 57//28 58//28 56//28
f 57//29 59//29 60//29 58//29
f 59//30 61//30 62//30 60//30
f 61//31 63//31 64//31 62//31
f 63//32 65//32 66//32 64//32
f 65//33 67//33 68//33 66//33
f 67//34 69//34 70//34 68//34
f 69//35 71//35 72//35 70//35
f 71//36 73//36 74//36 72//36
f 73//37 75//37 76//37 74//37
f 75//38 77//38 78//38 76//38
f 77//39 79//39 80//39 78//39
f 79//40 81//40 82//40 80//40
f 81//41 83//41 84//41 82//41
f 83//42 85//42 86//42 84//42
f 85//43 87//43 88//43 86//43
f 87//44 89//44 90//44 88//44
f 89//45 91//45 92//45 90//45
f 91//46 93//46 94//46 92//46
f 93//47 95//47 96//47 94//47
f 95//48 97//48 98//48 96//48
f 97//49 99//49 100//49 98//49
f 99//50 101//50 102//50 100//50
f 101//51 103//51 104//51 102//51
f 103//52 105//52 106//52 104//52
f 105//53 107//53 108//53 106//53
f 107//54 109//54 110//54 108//54
f 109//55 111//55 112//55 110//55
f 111//56 113//56 114//56 112//56
f 113//57 115//57 116//57 114//57
f 115//58 117//58 118//58 116//58
f 117//59 119//59 120//59 118//59
f 119//60 121//60 122//60 120//60
f 121//61 123//61 124//61 122//61
f 123//62 125//62 126//62 124//62
f 125//63 127//63 128//63 126//63
f 127//64 129//64 130//64 128//64
f 129//65 131//65 132//65 130//65
f 131//66 133//66 134//66 132//66
f 133//67 135//67 136//67 134//67
f 135//68 137//68 138//68 136//68
f 137//69 139//69 140//69 138//69
f 139//70 141//70 142//70 140//70
f 141//71 143//71 144//71 142//71
f 143//72 145//72 146//72 144//72
f 145//73 147//73 148//73 146//73
f 147//74 149//74 150//74 148//74
f 149//75 151//75 152//75 150//75
f 151//76 153//76 154//76 152//76
f 153//77 155//77 156//77 154//77
f 155//78 157//78 158//78 156//78
f 157//79 159//79 160//79 158//79
f 159//80 161//80 162//80 160//80
f 161//81 163//81 164//81 162//81
f 163//82 165//82 166//82 164//82
f 165//83 167//83 168//83 166//83
f 167//84 169//84 170//84 168//84
f 169//85 171//85 172//85 170//85
f 171//86 173//86 174//86 172//86
f 173//87 175//87 176//87 174//87
f 175//88 177//88 178//88 176//88
f 177//89 179//89 180//89 178//89
f 179//90 181//90 182//90 180//90
f 181//91 183//91 184//91 182//91
f 183//92 185//92 186//92 184//92
f 185//93 187//93 188//93 186//93
f 187//94 189//94 190//94 188//94
f 189//95 191//95 192//95 190//95
f 191//96 193//96 194//96 192//96
f 193//97 195//97 196//97 194//97
f 195//98 197//98 198//98 196//98
f 197//99 199//99 200//99 198//99
f 199//100 201//100 202//100 200//100
f 201//101 203//101 204//101 202//101
f 203//102 205//102 206//102 204//102
f 205//103 207//103 208//103 206//103
f 207//104 209//104 210//104 208//104
f 209//105 211//105 212//105 210//105
f 211//106 213//106 214//106 212//106
f 213//107 215//107 216//107 214//107
f 215//108 217//108 218//108 216//108
f 217//109 219//109 220//109 218//109
f 219//110 221//110 222//110 220//110
f 221//111 223//111 224//111 222//111
f 223//112 225//112 226//112 224//112
f 225//113 227//113 228//113 226//113
f 227//114 229//114 230//114 228//114
f 229//115 231//115 232//115 230//115
f 231//116 233//116 234//116 232//116
f 233//117 235//117 236//117 234//117
f 235//118 237//118 238//118 236//118
f 237//119 239//119 240//119 238//119
f 239//120 241//120 242//120 240//120
f 241//121 243//121 244//121 242//121
f 243//122 245//122 246//122 244//122
f 245//123 247//123 248//123 246//123
f 247//124 249//124 250//124 248//124
f 249//125 251//125 252//125 250//125
f 251//126 253//126 254//126 252//126
f 253//127 255//127 256//127 254//127
f 255//128 257//128 258//128 256//128
f 257//129 259//129 260//129 258//129
f 259//130 261//130 262//130 260//130
f 261//131 263//131 264//131 262//131
f 263//132 265//132 266//132 264//132
f 265//133 267//133 268//133 266//133
f 267//134 269//134 270//134 268//134
f 269//135 271//135 272//135 270//135
f 271//136 273//136 274//136 272//136
f 273//137 275//137 276//137 274//137
f 275//138 277//138 278//138 276//138
f 277//139 279//139 280//139 278//139
f 279//140 281//140 282//140 280//140
f 281//141 283//141 284//141 282//141
f 283//142 285//142 286//142 284//142
f 285//143 287//143 288//143 286//143
f 287//144 289//144 290//144 288//144
f 289//145 291//145 292//145 290//145
f 291//146 293//146 294//146 292//146
f 293//147 295//147 296//147 294//147
f 295//148 297//148 298//148 296//148
f 297//149 299//149 300//149 298//149
f 299//150 301//150 302//150 300//150
f 301//151 303//151 304//151 302//151
f 303//152 305//152 306//152 304//152
f 305//153 307//153 308//153 306//153
f 307//154 309//154 310//154 308//154
f 309//155 311//155 312//155 310//155
f 311//156 313//156 314//156 312//156
f 313//157 315//157 316//157 314//157
f 315//158 317//158 318//158 316//158
f 4//159 6//159 8//159 10//159 12//159 14//159 16//159 18//159 20//159 22//159 24//159 26//159 28//159 30//159 32//159 34//159 36//159 38//159 40//159 42//159 44//159 46//159 48//159 50//159 52//159 54//159 56//159 58//159 60//159 62//159 64//159 66//159 68//159 70//159 72//159 74//159 76//159 78//159 80//159 82//159 84//159 86//159 88//159 90//159 92//159 94//159 96//159 98//159 100//159 102//159 104//159 106//159 108//159 110//159 112//159 114//159 116//159 118//159 120//159 122//159 124//159 126//159 128//159 130//159 132//159 134//159 136//159 138//159 140//159 142//159 144//159 146//159 148//159 150//159 152//159 154//159 156//159 158//159 160//159 162//159 164//159 166//159 168//159 170//159 172//159 174//159 176//159 178//159 180//159 182//159 184//159 186//159 188//159 190//159 192//159 194//159 196//159 198//159 200//159 202//159 204//159 206//159 208//159 210//159 212//159 214//159 216//159 218//159 220//159 222//159 224//159 226//159 228//159 230//159 232//159 234//159 236//159 238//159 240//159 242//159 244//159 246//159 248//159 250//159 252//159 254//159 256//159 258//159 260//159 262//159 264//159 266//159 268//159 270//159 272//159 274//159 276//159 278//159 280//159 282//159 284//159 286//159 288//159 290//159 292//159 294//159 296//159 298//159 300//159 302//159 304//159 306//159 308//159 310//159 312//159 314//159 316//159 318//159 320//159 2//159
f 317//160 319//160 320//160 318//160
f 319//161 1//161 2//161 320//161
f 1//162 319//162 317//162 315//162 313//162 311//162 309//162 307//162 305//162 303//162 301//162 299//162 297//162 295//162 293//162 291//162 289//162 287//162 285//162 283//162 281//162 279//162 277//162 275//162 273//162 271//162 269//162 267//162 265//162 263//162 261//162 259//162 257//162 255//162 253//162 251//162 249//162 247//162 245//162 243//162 241//162 239//162 237//162 235//162 233//162 231//162 229//162 227//162 225//162 223//162 221//162 219//162 217//162 215//162 213//162 211//162 209//162 207//162 205//162 203//162 201//162 199//162 197//162 195//162 193//162 191//162 189//162 187//162 185//162 183//162 181//162 179//162 177//162 175//162 173//162 171//162 169//162 167//162 165//162 163//162 161//162 159//162 157//162 155//162 153//162 151//162 149//162 147//162 145//162 143//162 141//162 139//162 137//162 135//162 133//162 131//162 129//162 127//162 125//162 123//162 121//162 119//162 117//162 115//162 113//162 111//162 109//162 107//162 105//162 103//162 101//162 99//162 97//162 95//162 93//162 91//162 89//162 87//162 85//162 83//162 81//162 79//162 77//162 75//162 73//162 71//162 69//162 67//162 65//162 63//162 61//162 59//162 57//162 55//162 53//162 51//162 49//162 47//162 45//162 43//162 41//162 39//162 37//162 35//162 33//162 31//162 29//162 27//162 25//162 23//162 21//162 19//162 17//162 15//162 13//162 11//162 9//162 7//162 5//162 3//162
